{"title":"House.of.Cards.2013.S04E03.1080p.WEBRip.X264-DEFLATE","uid":13749834,"size":2521624914,"categoryP":"video","categoryS":"hd___tv_shows","magnet":"?xt=urn:btih:7353be959d03fa786257a67a1dfc3b00ed527197&amp;dn=House.of.Cards.2013.S04E03.1080p.WEBRip.X264-DEFLATE&amp;tr=udp%3A%2F%2Ftracker.leechers-paradise.org%3A6969&amp;tr=udp%3A%2F%2Fzer0day.ch%3A1337&amp;tr=udp%3A%2F%2Fopen.demonii.com%3A1337&amp;tr=udp%3A%2F%2Ftracker.coppersurfer.tk%3A6969&amp;tr=udp%3A%2F%2Fexodus.desync.com%3A6969","seeders":0,"leechers":4,"uploader":"Cybotage","files":3,"time":1457142971,"description":"Mediainfo :\r\n\r\nVideo\r\nID : 1\r\nFormat : AVC\r\nFormat/Info : Advanced Video Codec\r\nFormat profile :   \r\nFormat settings, CABAC : Yes\r\nFormat settings, ReFrames : 4 frames\r\nCodec ID : V_MPEG4/ISO/AVC\r\nDuration : 54mn 1s\r\nBit rate : 5 460 Kbps\r\nWidth : 1 920 pixels\r\nHeight : 960 pixels\r\nDisplay aspect ratio : 2.000\r\nFrame rate mode : Constant\r\nFrame rate : 23.976 (24000/1001) fps\r\nColor space : YUV\r\nChroma subsampling : 4:2:0\r\nBit depth : 8 bits\r\nScan type : Progressive\r\nBits/(Pixel*Frame) : 0.124\r\nStream size : 2.06 GiB (88%)\r\nTitle : X264-1080\r\nWriting library : x264 core 148 r2665 a01e339\r\nEncoding settings : cabac=1 / ref=4 / deblock=1:-3:-3 / analyse=0x3:0x133 / me=umh / subme=10 / psy=1 / psy_rd=1.05:0.00 / mixed_ref=1 / me_range=36 / chroma_me=1 / trellis=2 / 8x8dct=1 / cqm=0 / deadzone=6,6 / fast_pskip=0 / chroma_qp_offset=-2 / threads=12 / lookahead_threads=3 / sliced_threads=0 / nr=0 / decimate=0 / interlaced=0 / bluray_compat=0 / constrained_intra=0 / bframes=10 / b_pyramid=2 / b_adapt=2 / b_bias=0 / direct=3 / weightb=1 / open_gop=0 / weightp=2 / keyint=250 / keyint_min=23 / scenecut=40 / intra_refresh=0 / rc=crf / mbtree=0 / crf=17.0 / qcomp=0.80 / qpmin=0 / qpmax=69 / qpstep=4 / ip_ratio=1.10 / pb_ratio=1.10 / aq=3:0.60\r\nLanguage : English\r\nDefault : Yes\r\nForced : No\r\n\r\nAudio\r\nID : 2\r\nFormat : AC-3\r\nFormat/Info : Audio Coding 3\r\nMode extension : CM (complete main)\r\nFormat settings, Endianness : Big\r\nCodec ID : A_AC3\r\nDuration : 54mn 1s\r\nBit rate mode : Constant\r\nBit rate : 640 Kbps\r\nChannel(s) : 6 channels\r\nChannel positions : Front: L C R, Side: L R, LFE\r\nSampling rate : 48.0 KHz\r\nFrame rate : 31.250 fps (1536 spf)\r\nCompression mode : Lossy\r\nStream size : 247 MiB (10%)\r\nTitle : AC3 5.1\r\nLanguage : English\r\nDefault : Yes\r\nForced : No\r\n\r\nText #1\r\nID : 3\r\nFormat : UTF-8\r\nCodec ID : S_TEXT/UTF8\r\nCodec ID/Info : UTF-8 Plain Text\r\nTitle : English\r\nLanguage : English\r\nDefault : No\r\nForced : No\r\n\r\nText #2\r\nID : 4\r\nFormat : UTF-8\r\nCodec ID : S_TEXT/UTF8\r\nCodec ID/Info : UTF-8 Plain Text\r\nTitle : English (SDH)\r\nLanguage : English\r\nDefault : No\r\nForced : No\r\n\r\nText #3\r\nID : 5\r\nFormat : UTF-8\r\nCodec ID : S_TEXT/UTF8\r\nCodec ID/Info : UTF-8 Plain Text\r\nTitle : Dutch\r\nLanguage : Dutch\r\nDefault : No\r\nForced : No\r\n\r\nText #4\r\nID : 6\r\nFormat : UTF-8\r\nCodec ID : S_TEXT/UTF8\r\nCodec ID/Info : UTF-8 Plain Text\r\nTitle : French\r\nLanguage : French\r\nDefault : No\r\nForced : No\r\n\r\nText #5\r\nID : 7\r\nFormat : UTF-8\r\nCodec ID : S_TEXT/UTF8\r\nCodec ID/Info : UTF-8 Plain Text\r\nTitle : Italian\r\nLanguage : Italian\r\nDefault : No\r\nForced : No\r\n\r\nText #6\r\nID : 8\r\nFormat : UTF-8\r\nCodec ID : S_TEXT/UTF8\r\nCodec ID/Info : UTF-8 Plain Text\r\nTitle : Portuguese\r\nLanguage : Portuguese\r\nDefault : No\r\nForced : No","torrent":{"xt":"urn:btih:7353be959d03fa786257a67a1dfc3b00ed527197","amp;dn":"House.of.Cards.2013.S04E03.1080p.WEBRip.X264-DEFLATE","amp;tr":["udp%3A%2F%2Ftracker.leechers-paradise.org%3A6969","udp%3A%2F%2Fzer0day.ch%3A1337","udp%3A%2F%2Fopen.demonii.com%3A1337","udp%3A%2F%2Ftracker.coppersurfer.tk%3A6969","udp%3A%2F%2Fexodus.desync.com%3A6969"],"infoHash":"7353be959d03fa786257a67a1dfc3b00ed527197","infoHashBuffer":{"type":"Buffer","data":[115,83,190,149,157,3,250,120,98,87,166,122,29,252,59,0,237,82,113,151]},"announce":[],"urlList":[]}}